<svg xmlns="http://www.w3.org/2000/svg" xmlns:xlink="http://www.w3.org/1999/xlink" width="500" zoomAndPan="magnify" viewBox="0 0 375 374.999991" height="500" preserveAspectRatio="xMidYMid meet" version="1.0"><defs><clipPath id="48f7501322"><path d="M 179.449219 351 L 228.199219 351 L 228.199219 364.1875 L 179.449219 364.1875 Z M 179.449219 351 " clip-rule="nonzero"/></clipPath><clipPath id="a3efc054ef"><path d="M 179.449219 350.6875 L 228 350.6875 L 228 364 L 179.449219 364 Z M 179.449219 350.6875 " clip-rule="nonzero"/></clipPath><clipPath id="8c1518cba0"><path d="M 33.035156 52.246094 L 342.035156 52.246094 L 342.035156 283.996094 L 33.035156 283.996094 Z M 33.035156 52.246094 " clip-rule="nonzero"/></clipPath><clipPath id="01d3b49cd2"><path d="M 311.601562 232 L 375 232 L 375 375 L 311.601562 375 Z M 311.601562 232 " clip-rule="nonzero"/></clipPath><clipPath id="64d297cfdf"><path d="M 0 302.769531 L 375 302.769531 L 375 374.769531 L 0 374.769531 Z M 0 302.769531 " clip-rule="nonzero"/></clipPath><clipPath id="8a043fc603"><path d="M 0 232 L 66 232 L 66 375 L 0 375 Z M 0 232 " clip-rule="nonzero"/></clipPath></defs><g clip-path="url(#48f7501322)"><path fill="#b72323" d="M 221.898438 364.1875 L 185.972656 364.1875 C 182.492188 364.1875 179.671875 361.292969 179.671875 357.722656 C 179.671875 354.15625 182.492188 351.261719 185.972656 351.261719 L 221.898438 351.261719 C 225.378906 351.261719 228.199219 354.15625 228.199219 357.722656 C 228.199219 361.292969 225.378906 364.1875 221.898438 364.1875 Z M 221.898438 364.1875 " fill-opacity="1" fill-rule="nonzero"/></g><g clip-path="url(#a3efc054ef)"><path fill="#ff0000" d="M 221.675781 363.617188 L 185.75 363.617188 C 182.269531 363.617188 179.449219 360.722656 179.449219 357.152344 C 179.449219 353.585938 182.269531 350.691406 185.75 350.691406 L 221.675781 350.691406 C 225.15625 350.691406 227.976562 353.585938 227.976562 357.152344 C 227.976562 360.722656 225.15625 363.617188 221.675781 363.617188 Z M 221.675781 363.617188 " fill-opacity="1" fill-rule="nonzero"/></g><path fill="#ffffff" d="M 191.9375 355.308594 C 192.28125 355.253906 192.726562 355.21875 193.191406 355.21875 C 193.972656 355.21875 194.484375 355.367188 194.878906 355.671875 C 195.304688 356 195.574219 356.511719 195.574219 357.261719 C 195.574219 358.070312 195.289062 358.628906 194.894531 358.96875 C 194.460938 359.339844 193.796875 359.515625 192.996094 359.515625 C 192.511719 359.515625 192.167969 359.488281 191.941406 359.453125 Z M 192.867188 358.753906 C 192.949219 358.769531 193.078125 358.773438 193.191406 358.773438 C 194.035156 358.777344 194.589844 358.300781 194.589844 357.292969 C 194.59375 356.414062 194.09375 355.953125 193.289062 355.953125 C 193.085938 355.953125 192.949219 355.972656 192.867188 355.992188 Z M 192.867188 358.753906 " fill-opacity="1" fill-rule="nonzero"/><path fill="#ffffff" d="M 199.953125 357.320312 C 199.953125 358.707031 199.136719 359.542969 197.933594 359.542969 C 196.710938 359.542969 195.996094 358.597656 195.996094 357.390625 C 195.996094 356.128906 196.789062 355.183594 198 355.183594 C 199.261719 355.183594 199.953125 356.152344 199.953125 357.320312 Z M 196.980469 357.375 C 196.980469 358.199219 197.359375 358.785156 197.980469 358.785156 C 198.609375 358.785156 198.96875 358.175781 198.96875 357.351562 C 198.96875 356.59375 198.617188 355.941406 197.976562 355.941406 C 197.347656 355.941406 196.980469 356.550781 196.980469 357.375 Z M 196.980469 357.375 " fill-opacity="1" fill-rule="nonzero"/><path fill="#ffffff" d="M 201.1875 359.472656 L 200.210938 355.253906 L 201.210938 355.253906 L 201.519531 356.992188 C 201.609375 357.492188 201.695312 358.039062 201.757812 358.46875 L 201.773438 358.46875 C 201.839844 358.007812 201.9375 357.503906 202.042969 356.980469 L 202.394531 355.253906 L 203.382812 355.253906 L 203.714844 357.035156 C 203.800781 357.527344 203.871094 357.976562 203.929688 358.445312 L 203.941406 358.445312 C 204.007812 357.976562 204.09375 357.484375 204.183594 356.980469 L 204.519531 355.253906 L 205.464844 355.253906 L 204.402344 359.472656 L 203.398438 359.472656 L 203.046875 357.65625 C 202.964844 357.234375 202.898438 356.835938 202.847656 356.359375 L 202.835938 356.359375 C 202.765625 356.832031 202.699219 357.234375 202.601562 357.660156 L 202.210938 359.472656 Z M 201.1875 359.472656 " fill-opacity="1" fill-rule="nonzero"/><path fill="#ffffff" d="M 205.949219 359.476562 L 205.949219 355.253906 L 207.03125 355.253906 L 207.886719 356.804688 C 208.132812 357.246094 208.375 357.773438 208.5625 358.25 L 208.578125 358.25 C 208.519531 357.691406 208.503906 357.121094 208.503906 356.484375 L 208.503906 355.253906 L 209.359375 355.253906 L 209.359375 359.476562 L 208.382812 359.476562 L 207.5 357.851562 C 207.257812 357.394531 206.984375 356.855469 206.785156 356.359375 L 206.765625 356.363281 C 206.792969 356.921875 206.804688 357.519531 206.804688 358.207031 L 206.804688 359.476562 Z M 205.949219 359.476562 " fill-opacity="1" fill-rule="nonzero"/><path fill="#ffffff" d="M 210.164062 355.253906 L 211.09375 355.253906 L 211.09375 358.675781 L 212.734375 358.675781 L 212.734375 359.476562 L 210.164062 359.476562 Z M 210.164062 355.253906 " fill-opacity="1" fill-rule="nonzero"/><path fill="#ffffff" d="M 216.816406 357.324219 C 216.816406 358.710938 216 359.546875 214.796875 359.546875 C 213.578125 359.546875 212.859375 358.597656 212.859375 357.394531 C 212.859375 356.132812 213.652344 355.183594 214.863281 355.183594 C 216.125 355.1875 216.816406 356.15625 216.816406 357.324219 Z M 213.84375 357.375 C 213.84375 358.203125 214.222656 358.785156 214.84375 358.785156 C 215.472656 358.785156 215.832031 358.175781 215.832031 357.355469 C 215.832031 356.59375 215.480469 355.941406 214.839844 355.941406 C 214.210938 355.945312 213.84375 356.558594 213.84375 357.375 Z M 213.84375 357.375 " fill-opacity="1" fill-rule="nonzero"/><path fill="#ffffff" d="M 218.285156 358.394531 L 217.996094 359.480469 L 217.035156 359.480469 L 218.289062 355.257812 L 219.507812 355.257812 L 220.789062 359.480469 L 219.785156 359.480469 L 219.472656 358.394531 Z M 219.332031 357.683594 L 219.078125 356.785156 C 219.007812 356.539062 218.933594 356.222656 218.871094 355.972656 L 218.855469 355.972656 C 218.796875 356.222656 218.734375 356.542969 218.667969 356.789062 L 218.421875 357.6875 Z M 219.332031 357.683594 " fill-opacity="1" fill-rule="nonzero"/><path fill="#ffffff" d="M 221.339844 355.316406 C 221.683594 355.257812 222.125 355.222656 222.59375 355.222656 C 223.375 355.222656 223.882812 355.371094 224.277344 355.675781 C 224.707031 356.003906 224.976562 356.519531 224.976562 357.265625 C 224.976562 358.078125 224.691406 358.636719 224.296875 358.976562 C 223.863281 359.34375 223.199219 359.523438 222.398438 359.523438 C 221.914062 359.523438 221.570312 359.492188 221.339844 359.460938 Z M 222.269531 358.757812 C 222.351562 358.773438 222.480469 358.777344 222.59375 358.777344 C 223.4375 358.785156 223.992188 358.304688 223.992188 357.296875 C 223.992188 356.421875 223.492188 355.960938 222.691406 355.960938 C 222.488281 355.960938 222.351562 355.976562 222.269531 355.996094 Z M 222.269531 358.757812 " fill-opacity="1" fill-rule="nonzero"/><path fill="#ffffff" d="M 188 357.65625 L 188 354.652344 L 185.457031 354.652344 L 185.457031 357.65625 L 184.097656 357.65625 L 185.394531 359.535156 L 186.691406 361.417969 L 187.984375 359.535156 L 189.28125 357.65625 Z M 188 357.65625 " fill-opacity="1" fill-rule="nonzero"/><g clip-path="url(#8c1518cba0)"><path fill="#7ed957" d="M 188.238281 -134.722656 C 24.144531 -134.722656 -109.519531 -1.058594 -109.519531 163.039062 C -109.519531 327.136719 24.144531 460.800781 188.238281 460.800781 C 352.335938 460.800781 486 327.136719 486 163.039062 C 486 -1.058594 352.335938 -134.722656 188.238281 -134.722656 Z M 188.238281 -75.171875 C 320.152344 -75.171875 426.449219 31.125 426.449219 163.039062 C 426.449219 294.949219 320.152344 401.246094 188.238281 401.246094 C 56.328125 401.246094 -49.96875 294.949219 -49.96875 163.039062 C -49.96875 31.125 56.328125 -75.171875 188.238281 -75.171875 Z M 306.761719 73.417969 C 304.847656 73.476562 302.953125 73.714844 301.085938 74.140625 C 299.214844 74.5625 297.402344 75.160156 295.648438 75.929688 C 293.894531 76.703125 292.230469 77.636719 290.65625 78.730469 C 289.082031 79.824219 287.628906 81.058594 286.292969 82.433594 L 158.464844 210.261719 L 90.1875 141.984375 C 89.503906 141.273438 88.785156 140.597656 88.035156 139.957031 C 87.28125 139.3125 86.5 138.710938 85.691406 138.148438 C 84.878906 137.585938 84.039062 137.0625 83.175781 136.582031 C 82.3125 136.101562 81.429688 135.667969 80.519531 135.273438 C 79.613281 134.882812 78.691406 134.539062 77.75 134.238281 C 76.808594 133.9375 75.855469 133.683594 74.886719 133.480469 C 73.921875 133.273438 72.945312 133.117188 71.964844 133.011719 C 70.984375 132.902344 69.996094 132.84375 69.011719 132.832031 C 68.023438 132.824219 67.035156 132.863281 66.050781 132.949219 C 65.066406 133.039062 64.089844 133.175781 63.121094 133.359375 C 62.148438 133.546875 61.191406 133.777344 60.242188 134.058594 C 59.296875 134.339844 58.367188 134.667969 57.449219 135.039062 C 56.535156 135.414062 55.640625 135.832031 54.769531 136.292969 C 53.894531 136.757812 53.046875 137.261719 52.226562 137.808594 C 51.402344 138.355469 50.609375 138.941406 49.84375 139.566406 C 49.082031 140.191406 48.347656 140.855469 47.648438 141.554688 C 46.953125 142.25 46.289062 142.984375 45.664062 143.746094 C 45.039062 144.511719 44.453125 145.304688 43.90625 146.128906 C 43.359375 146.953125 42.851562 147.800781 42.390625 148.671875 C 41.929688 149.546875 41.511719 150.441406 41.136719 151.355469 C 40.761719 152.269531 40.4375 153.199219 40.15625 154.148438 C 39.875 155.09375 39.640625 156.054688 39.457031 157.023438 C 39.269531 157.992188 39.132812 158.972656 39.046875 159.957031 C 38.957031 160.9375 38.917969 161.925781 38.929688 162.914062 C 38.9375 163.902344 39 164.886719 39.105469 165.867188 C 39.214844 166.851562 39.371094 167.824219 39.578125 168.789062 C 39.78125 169.757812 40.035156 170.710938 40.332031 171.652344 C 40.632812 172.59375 40.980469 173.519531 41.371094 174.425781 C 41.765625 175.332031 42.199219 176.214844 42.679688 177.082031 C 43.160156 177.945312 43.679688 178.78125 44.246094 179.59375 C 44.808594 180.40625 45.410156 181.1875 46.050781 181.9375 C 46.691406 182.6875 47.371094 183.40625 48.082031 184.089844 L 137.410156 273.417969 C 138.101562 274.109375 138.824219 274.761719 139.578125 275.382812 C 140.332031 276 141.113281 276.578125 141.921875 277.121094 C 142.734375 277.664062 143.570312 278.164062 144.429688 278.621094 C 145.289062 279.082031 146.167969 279.5 147.070312 279.871094 C 147.972656 280.246094 148.886719 280.574219 149.820312 280.855469 C 150.753906 281.140625 151.699219 281.375 152.65625 281.566406 C 153.613281 281.753906 154.574219 281.898438 155.546875 281.996094 C 156.515625 282.089844 157.488281 282.136719 158.464844 282.136719 C 159.4375 282.136719 160.410156 282.089844 161.382812 281.996094 C 162.351562 281.898438 163.316406 281.753906 164.273438 281.566406 C 165.226562 281.375 166.171875 281.140625 167.105469 280.855469 C 168.039062 280.574219 168.957031 280.246094 169.855469 279.871094 C 170.757812 279.5 171.636719 279.082031 172.5 278.621094 C 173.359375 278.164062 174.195312 277.664062 175.003906 277.121094 C 175.816406 276.578125 176.597656 276 177.351562 275.382812 C 178.105469 274.761719 178.828125 274.109375 179.515625 273.417969 L 328.398438 124.539062 C 329.464844 123.5 330.453125 122.386719 331.355469 121.199219 C 332.257812 120.011719 333.066406 118.761719 333.78125 117.453125 C 334.496094 116.140625 335.109375 114.789062 335.617188 113.386719 C 336.128906 111.984375 336.53125 110.550781 336.828125 109.089844 C 337.125 107.628906 337.308594 106.152344 337.382812 104.664062 C 337.457031 103.171875 337.417969 101.6875 337.269531 100.203125 C 337.121094 98.71875 336.859375 97.253906 336.492188 95.808594 C 336.121094 94.363281 335.644531 92.953125 335.066406 91.578125 C 334.484375 90.207031 333.804688 88.882812 333.023438 87.613281 C 332.242188 86.339844 331.371094 85.132812 330.410156 83.992188 C 329.449219 82.851562 328.40625 81.789062 327.289062 80.808594 C 326.167969 79.824219 324.976562 78.929688 323.722656 78.121094 C 322.46875 77.316406 321.160156 76.609375 319.796875 76 C 318.433594 75.390625 317.035156 74.886719 315.597656 74.488281 C 314.160156 74.089844 312.703125 73.800781 311.21875 73.621094 C 309.738281 73.441406 308.253906 73.375 306.761719 73.417969 Z M 306.761719 73.417969 " fill-opacity="1" fill-rule="nonzero"/></g><g clip-path="url(#01d3b49cd2)"><path fill="#7ed957" d="M 0 343.75 C 0 352.054688 3.304688 360 9.195312 365.804688 C 15.089844 371.695312 23.035156 375 31.25 375 L 343.75 375 C 352.054688 375 360 371.695312 365.804688 365.804688 C 371.695312 359.910156 375 351.964844 375 343.75 L 375 249.195312 C 375 240.089844 367.589844 232.679688 358.480469 232.679688 C 354.105469 232.679688 349.910156 234.464844 346.785156 237.5 C 343.660156 240.625 341.964844 244.820312 341.964844 249.195312 L 341.964844 326.429688 C 341.964844 335.089844 335 342.054688 326.339844 342.054688 L 48.660156 342.054688 C 40 342.054688 33.035156 335.089844 33.035156 326.429688 L 33.035156 249.195312 C 33.035156 244.820312 31.25 240.625 28.214844 237.5 C 25.089844 234.375 20.894531 232.679688 16.519531 232.679688 C 7.410156 232.679688 0 240.089844 0 249.195312 Z M 0 343.75 " fill-opacity="1" fill-rule="evenodd"/></g><g clip-path="url(#64d297cfdf)"><path fill="#7ed957" d="M 0 343.75 C 0 352.054688 3.304688 360 9.195312 365.804688 C 15.089844 371.695312 23.035156 375 31.25 375 L 343.75 375 C 352.054688 375 360 371.695312 365.804688 365.804688 C 371.695312 359.910156 375 351.964844 375 343.75 L 375 249.195312 C 375 240.089844 367.589844 232.679688 358.480469 232.679688 C 354.105469 232.679688 349.910156 234.464844 346.785156 237.5 C 343.660156 240.625 341.964844 244.820312 341.964844 249.195312 L 341.964844 326.429688 C 341.964844 335.089844 335 342.054688 326.339844 342.054688 L 48.660156 342.054688 C 40 342.054688 33.035156 335.089844 33.035156 326.429688 L 33.035156 249.195312 C 33.035156 244.820312 31.25 240.625 28.214844 237.5 C 25.089844 234.375 20.894531 232.679688 16.519531 232.679688 C 7.410156 232.679688 0 240.089844 0 249.195312 Z M 0 343.75 " fill-opacity="1" fill-rule="evenodd"/></g><g clip-path="url(#8a043fc603)"><path fill="#7ed957" d="M 0 343.75 C 0 352.054688 3.304688 360 9.195312 365.804688 C 15.089844 371.695312 23.035156 375 31.25 375 L 343.75 375 C 352.054688 375 360 371.695312 365.804688 365.804688 C 371.695312 359.910156 375 351.964844 375 343.75 L 375 249.195312 C 375 240.089844 367.589844 232.679688 358.480469 232.679688 C 354.105469 232.679688 349.910156 234.464844 346.785156 237.5 C 343.660156 240.625 341.964844 244.820312 341.964844 249.195312 L 341.964844 326.429688 C 341.964844 335.089844 335 342.054688 326.339844 342.054688 L 48.660156 342.054688 C 40 342.054688 33.035156 335.089844 33.035156 326.429688 L 33.035156 249.195312 C 33.035156 244.820312 31.25 240.625 28.214844 237.5 C 25.089844 234.375 20.894531 232.679688 16.519531 232.679688 C 7.410156 232.679688 0 240.089844 0 249.195312 Z M 0 343.75 " fill-opacity="1" fill-rule="evenodd"/></g></svg>