<svg xmlns="http://www.w3.org/2000/svg" xmlns:xlink="http://www.w3.org/1999/xlink" width="500" zoomAndPan="magnify" viewBox="0 0 375 374.999991" height="500" preserveAspectRatio="xMidYMid meet" version="1.0"><defs><clipPath id="f4aa3ccaf0"><path d="M 179.449219 351 L 228.199219 351 L 228.199219 364.1875 L 179.449219 364.1875 Z M 179.449219 351 " clip-rule="nonzero"/></clipPath><clipPath id="8b14ed302a"><path d="M 179.449219 350.6875 L 228 350.6875 L 228 364 L 179.449219 364 Z M 179.449219 350.6875 " clip-rule="nonzero"/></clipPath></defs><g clip-path="url(#f4aa3ccaf0)"><path fill="#b72323" d="M 221.898438 364.1875 L 185.972656 364.1875 C 182.492188 364.1875 179.671875 361.292969 179.671875 357.722656 C 179.671875 354.15625 182.492188 351.261719 185.972656 351.261719 L 221.898438 351.261719 C 225.378906 351.261719 228.199219 354.15625 228.199219 357.722656 C 228.199219 361.292969 225.378906 364.1875 221.898438 364.1875 Z M 221.898438 364.1875 " fill-opacity="1" fill-rule="nonzero"/></g><g clip-path="url(#8b14ed302a)"><path fill="#ff0000" d="M 221.675781 363.617188 L 185.75 363.617188 C 182.269531 363.617188 179.449219 360.722656 179.449219 357.152344 C 179.449219 353.585938 182.269531 350.691406 185.75 350.691406 L 221.675781 350.691406 C 225.15625 350.691406 227.976562 353.585938 227.976562 357.152344 C 227.976562 360.722656 225.15625 363.617188 221.675781 363.617188 Z M 221.675781 363.617188 " fill-opacity="1" fill-rule="nonzero"/></g><path fill="#ffffff" d="M 191.9375 355.308594 C 192.28125 355.253906 192.726562 355.21875 193.191406 355.21875 C 193.972656 355.21875 194.484375 355.367188 194.878906 355.671875 C 195.304688 356 195.574219 356.511719 195.574219 357.261719 C 195.574219 358.070312 195.289062 358.628906 194.894531 358.96875 C 194.460938 359.339844 193.796875 359.515625 192.996094 359.515625 C 192.511719 359.515625 192.167969 359.488281 191.941406 359.453125 Z M 192.867188 358.753906 C 192.949219 358.769531 193.078125 358.773438 193.191406 358.773438 C 194.035156 358.777344 194.589844 358.300781 194.589844 357.292969 C 194.59375 356.414062 194.09375 355.953125 193.289062 355.953125 C 193.085938 355.953125 192.949219 355.972656 192.867188 355.992188 Z M 192.867188 358.753906 " fill-opacity="1" fill-rule="nonzero"/><path fill="#ffffff" d="M 199.953125 357.320312 C 199.953125 358.707031 199.136719 359.542969 197.933594 359.542969 C 196.710938 359.542969 195.996094 358.597656 195.996094 357.390625 C 195.996094 356.128906 196.789062 355.183594 198 355.183594 C 199.261719 355.183594 199.953125 356.152344 199.953125 357.320312 Z M 196.980469 357.375 C 196.980469 358.199219 197.359375 358.785156 197.980469 358.785156 C 198.609375 358.785156 198.96875 358.175781 198.96875 357.351562 C 198.96875 356.59375 198.617188 355.941406 197.976562 355.941406 C 197.347656 355.941406 196.980469 356.550781 196.980469 357.375 Z M 196.980469 357.375 " fill-opacity="1" fill-rule="nonzero"/><path fill="#ffffff" d="M 201.1875 359.472656 L 200.210938 355.253906 L 201.210938 355.253906 L 201.519531 356.992188 C 201.609375 357.492188 201.695312 358.039062 201.757812 358.46875 L 201.773438 358.46875 C 201.839844 358.007812 201.9375 357.503906 202.042969 356.980469 L 202.394531 355.253906 L 203.382812 355.253906 L 203.714844 357.035156 C 203.800781 357.527344 203.871094 357.976562 203.929688 358.445312 L 203.941406 358.445312 C 204.007812 357.976562 204.09375 357.484375 204.183594 356.980469 L 204.519531 355.253906 L 205.464844 355.253906 L 204.402344 359.472656 L 203.398438 359.472656 L 203.046875 357.65625 C 202.964844 357.234375 202.898438 356.835938 202.847656 356.359375 L 202.835938 356.359375 C 202.765625 356.832031 202.699219 357.234375 202.601562 357.660156 L 202.210938 359.472656 Z M 201.1875 359.472656 " fill-opacity="1" fill-rule="nonzero"/><path fill="#ffffff" d="M 205.949219 359.476562 L 205.949219 355.253906 L 207.03125 355.253906 L 207.886719 356.804688 C 208.132812 357.246094 208.375 357.773438 208.5625 358.25 L 208.578125 358.25 C 208.519531 357.691406 208.503906 357.121094 208.503906 356.484375 L 208.503906 355.253906 L 209.359375 355.253906 L 209.359375 359.476562 L 208.382812 359.476562 L 207.5 357.851562 C 207.257812 357.394531 206.984375 356.855469 206.785156 356.359375 L 206.765625 356.363281 C 206.792969 356.921875 206.804688 357.519531 206.804688 358.207031 L 206.804688 359.476562 Z M 205.949219 359.476562 " fill-opacity="1" fill-rule="nonzero"/><path fill="#ffffff" d="M 210.164062 355.253906 L 211.09375 355.253906 L 211.09375 358.675781 L 212.734375 358.675781 L 212.734375 359.476562 L 210.164062 359.476562 Z M 210.164062 355.253906 " fill-opacity="1" fill-rule="nonzero"/><path fill="#ffffff" d="M 216.816406 357.324219 C 216.816406 358.710938 216 359.546875 214.796875 359.546875 C 213.578125 359.546875 212.859375 358.597656 212.859375 357.394531 C 212.859375 356.132812 213.652344 355.183594 214.863281 355.183594 C 216.125 355.1875 216.816406 356.15625 216.816406 357.324219 Z M 213.84375 357.375 C 213.84375 358.203125 214.222656 358.785156 214.84375 358.785156 C 215.472656 358.785156 215.832031 358.175781 215.832031 357.355469 C 215.832031 356.59375 215.480469 355.941406 214.839844 355.941406 C 214.210938 355.945312 213.84375 356.558594 213.84375 357.375 Z M 213.84375 357.375 " fill-opacity="1" fill-rule="nonzero"/><path fill="#ffffff" d="M 218.285156 358.394531 L 217.996094 359.480469 L 217.035156 359.480469 L 218.289062 355.257812 L 219.507812 355.257812 L 220.789062 359.480469 L 219.785156 359.480469 L 219.472656 358.394531 Z M 219.332031 357.683594 L 219.078125 356.785156 C 219.007812 356.539062 218.933594 356.222656 218.871094 355.972656 L 218.855469 355.972656 C 218.796875 356.222656 218.734375 356.542969 218.667969 356.789062 L 218.421875 357.6875 Z M 219.332031 357.683594 " fill-opacity="1" fill-rule="nonzero"/><path fill="#ffffff" d="M 221.339844 355.316406 C 221.683594 355.257812 222.125 355.222656 222.59375 355.222656 C 223.375 355.222656 223.882812 355.371094 224.277344 355.675781 C 224.707031 356.003906 224.976562 356.519531 224.976562 357.265625 C 224.976562 358.078125 224.691406 358.636719 224.296875 358.976562 C 223.863281 359.34375 223.199219 359.523438 222.398438 359.523438 C 221.914062 359.523438 221.570312 359.492188 221.339844 359.460938 Z M 222.269531 358.757812 C 222.351562 358.773438 222.480469 358.777344 222.59375 358.777344 C 223.4375 358.785156 223.992188 358.304688 223.992188 357.296875 C 223.992188 356.421875 223.492188 355.960938 222.691406 355.960938 C 222.488281 355.960938 222.351562 355.976562 222.269531 355.996094 Z M 222.269531 358.757812 " fill-opacity="1" fill-rule="nonzero"/><path fill="#ffffff" d="M 188 357.65625 L 188 354.652344 L 185.457031 354.652344 L 185.457031 357.65625 L 184.097656 357.65625 L 185.394531 359.535156 L 186.691406 361.417969 L 187.984375 359.535156 L 189.28125 357.65625 Z M 188 357.65625 " fill-opacity="1" fill-rule="nonzero"/><path fill="#000000" d="M 204.019531 232.679688 L 204.019531 16.519531 C 204.019531 12.144531 202.320312 7.945312 199.195312 4.820312 C 196.070312 1.785156 191.875 0 187.5 0 C 183.125 0 178.929688 1.785156 175.804688 4.820312 C 172.679688 7.945312 170.980469 12.144531 170.980469 16.519531 L 170.980469 232.679688 C 170.980469 232.679688 139.464844 201.160156 121.875 183.570312 C 118.75 180.445312 114.554688 178.75 110.179688 178.75 C 105.804688 178.75 101.605469 180.445312 98.480469 183.570312 C 92.054688 190 92.054688 200.445312 98.480469 206.875 L 176.429688 284.820312 C 179.375 287.769531 183.304688 289.375 187.5 289.375 C 191.695312 289.375 195.625 287.769531 198.570312 284.820312 L 276.519531 206.875 C 282.945312 200.445312 282.945312 190 276.519531 183.570312 C 273.394531 180.445312 269.195312 178.75 264.820312 178.75 C 260.445312 178.75 256.25 180.445312 253.125 183.570312 C 235.445312 201.160156 204.019531 232.679688 204.019531 232.679688 Z M 204.019531 232.679688 " fill-opacity="1" fill-rule="evenodd"/><path fill="#000000" d="M 0 343.75 C 0 352.054688 3.304688 360 9.195312 365.804688 C 15.089844 371.695312 23.035156 375 31.25 375 L 343.75 375 C 352.054688 375 360 371.695312 365.804688 365.804688 C 371.695312 359.910156 375 351.964844 375 343.75 L 375 249.195312 C 375 240.089844 367.589844 232.679688 358.480469 232.679688 C 354.105469 232.679688 349.910156 234.464844 346.785156 237.5 C 343.660156 240.625 341.964844 244.820312 341.964844 249.195312 L 341.964844 326.429688 C 341.964844 335.089844 335 342.054688 326.339844 342.054688 L 48.660156 342.054688 C 40 342.054688 33.035156 335.089844 33.035156 326.429688 L 33.035156 249.195312 C 33.035156 244.820312 31.25 240.625 28.214844 237.5 C 25.089844 234.375 20.894531 232.679688 16.519531 232.679688 C 7.410156 232.679688 0 240.089844 0 249.195312 Z M 0 343.75 " fill-opacity="1" fill-rule="evenodd"/></svg>